<mxfile host="app.diagrams.net" agent="Mozilla/5.0 (X11; Ubuntu; Linux x86_64; rv:129.0) Gecko/20100101 Firefox/129.0" version="24.7.7">
  <diagram name="Page-1" id="e_W07_uSJR8321Vz0zJF">
    <mxGraphModel dx="1195" dy="1563" grid="1" gridSize="10" guides="1" tooltips="1" connect="1" arrows="1" fold="1" page="1" pageScale="1" pageWidth="850" pageHeight="1100" math="0" shadow="0">
      <root>
        <mxCell id="0" />
        <mxCell id="1" parent="0" />
        <mxCell id="gQY9FMvlp9wrIZhx4u4_-1" value="" style="shape=image;verticalLabelPosition=bottom;labelBackgroundColor=default;verticalAlign=top;aspect=fixed;imageAspect=0;image=data:image/svg+xml,PHN2ZyBwcmVzZXJ2ZUFzcGVjdFJhdGlvPSJ4TWlkWU1pZCBtZWV0IiB2aWV3Qm94PSI0MjMgNDIzLjM5NTY2MDQwMDM5MDYgOTIwIDg5Ny45MjQ4MDQ2ODc1IiBoZWlnaHQ9Ijg5Ny45MjQ4MDQ2ODc1IiB3aWR0aD0iOTIwIiB4bWxucz0iaHR0cDovL3d3dy53My5vcmcvMjAwMC9zdmciIHZlcnNpb249IjEuMCI+JiN4YTsmI3hhOzxnIHN0cm9rZT0ibm9uZSIgZmlsbD0iIzAwMDAwMCIgdHJhbnNmb3JtPSJ0cmFuc2xhdGUoMC4wMDAwMDAsMTc0MS4wMDAwMDApIHNjYWxlKDAuMTAwMDAwLC0wLjEwMDAwMCkiPiYjeGE7PHBhdGggZD0iTTg1NTMgMTMwMjggbC0yNjMgLTE1MyAwIC0xMzA4IDAgLTEzMDcgLTIyIDQgYy00NzQgMTAzIC04MzcgMjYxJiN4QTstMTE5MiA1MjAgLTY0IDQ3IC0xMjAgODYgLTEyMyA4NiAtMTIgMCAtOTYzIC01NTMgLTk2MyAtNTYwIDAgLTQgNTIgLTU0IDExNiYjeEE7LTExMSA2NTIgLTU4MiAxMzY5IC05MTAgMjIzOSAtMTAyNiAxOTIgLTI1IDc2NCAtMjUgOTYwIDAgODUyIDExMSAxNTY4IDQzNCYjeEE7MjIwNSA5OTMgMTMxIDExNSAxNTYgMTQyIDE0NCAxNTMgLTExIDExIC05MDQgNTI3IC05MzggNTQyIC0yMSAxMCAtMzEgNSAtODcmI3hBOy0zOSAtMTY5IC0xMzIgLTQ1NiAtMjk3IC02NjkgLTM4NSAtMTYzIC02NyAtMzU4IC0xMjYgLTU3NyAtMTczIGwtMjMgLTQgMCYjeEE7MTMwOCAwIDEzMDkgLTI1NSAxNDggYy0xNDEgODEgLTI2MyAxNDkgLTI3MyAxNTEgLTkgMiAtMTM1IC02NSAtMjc5IC0xNDh6Ii8+JiN4YTs8cGF0aCBkPSJNNTI5MiA4NTUwIGwzIC01NjEgMTAxIC00MyBjMjMyIC05OSA0ODggLTI1MiA2OTQgLTQxNiAxMDkgLTg3IDQwNCYjeEE7LTM3NiAzOTYgLTM4OSAtMyAtMyAtNTExIC0yOTkgLTExMzAgLTY1NiBsLTExMjYgLTY1MCAwIC0zMTIgMCAtMzExIDI1NyAtMTQ4JiN4QTtjMTQyIC04MiAyNjQgLTE0OCAyNzMgLTE0OCA4IDAgNTE1IDI4OSAxMTI3IDY0MiA2MTIgMzUzIDExMTggNjQ1IDExMjYgNjQ4JiN4QTsyNSA5IDExNiAtMzE4IDE1MSAtNTQxIDQwIC0yNTkgNDQgLTU1MiAxMiAtODA1IC03IC01OCAtMTEgLTEwOCAtNyAtMTEyIDggLTgmI3hBOzk0MyAtNTQ3IDk1NSAtNTUxIDEyIC0zIDIwIDI1IDYxIDIyOCA2MCAzMDAgNzAgNDEwIDcwIDc5MCAwIDM1NiAtNSA0MzEgLTUxJiN4QTs2OTUgLTIzNSAxMzc0IC0xMTg0IDI1NDIgLTI0ODQgMzA1OCAtMTE2IDQ2IC00MDAgMTQyIC00MjEgMTQyIC01IDAgLTggLTIyNyYjeEE7LTcgLTU2MHoiLz4mI3hhOzxwYXRoIGQ9Ik0xMjIzMSA5MDc0IGMtNjU3IC0yMDIgLTEzMDAgLTYwNSAtMTc1NCAtMTA5OSAtNTg5IC02NDAgLTk0NCAtMTM5OCYjeEE7LTEwNTcgLTIyNTUgLTQyIC0zMTYgLTM3IC03NDkgMTEgLTEwODUgMjAgLTEzOCA3NSAtNDA5IDg3IC00MzIgNSAtNyAxNzMgODUmI3hBOzQ4MSAyNjMgMjYxIDE1MCA0NzkgMjc4IDQ4NCAyODMgNSA1IDUgMzYgLTIgNzggLTQ2IDMwMCAtMjkgNjk3IDQ1IDEwMzIgMjgmI3hBOzEyNiA4OSAzMzAgMTAyIDM0MyA1IDUgNTEyIC0yODMgMTEyOCAtNjM4IDYxNSAtMzU2IDExMjYgLTY0OCAxMTM1IC02NDggOSAtMSYjeEE7MTMzIDY3IDI3NyAxNDkgbDI2MiAxNTAgLTMgMzA5IC0yIDMxMCAtMTEyNyA2NTAgYy02MjEgMzU4IC0xMTI4IDY1NCAtMTEyOCYjeEE7NjU4IDAgMTQgMTUxIDE3MyAyNTMgMjY2IDI0MSAyMjEgNTE2IDQwMCA4MTEgNTI5IGwxMjEgNTIgMyA1NjEgYzEgMzA4IC0xJiN4QTs1NjAgLTUgNTYwIC01IC0xIC01OSAtMTcgLTEyMiAtMzZ6Ii8+JiN4YTs8L2c+JiN4YTs8L3N2Zz4=;" vertex="1" parent="1">
          <mxGeometry x="282" y="390" width="286.86" height="280" as="geometry" />
        </mxCell>
        <mxCell id="gQY9FMvlp9wrIZhx4u4_-3" value="Matter Not Certified For This Product" style="text;html=1;align=center;verticalAlign=middle;whiteSpace=wrap;rounded=0;fontStyle=1" vertex="1" parent="1">
          <mxGeometry x="280" y="680" width="288.86" height="30" as="geometry" />
        </mxCell>
      </root>
    </mxGraphModel>
  </diagram>
</mxfile>
